<svg xmlns="http://www.w3.org/2000/svg" width="512" height="512" viewBox="0 0 512 512">
  <defs>
    <radialGradient id="g1" cx="30%" cy="25%" r="90%">
      <stop offset="0%" stop-color="#7ee7ff" stop-opacity="1"/>
      <stop offset="55%" stop-color="#c681ff" stop-opacity="0.85"/>
      <stop offset="100%" stop-color="#0A0C14" stop-opacity="1"/>
    </radialGradient>
    <linearGradient id="g2" x1="0" y1="0" x2="1" y2="1">
      <stop offset="0%" stop-color="#7ee7ff"/>
      <stop offset="100%" stop-color="#c681ff"/>
    </linearGradient>
    <filter id="glow" x="-30%" y="-30%" width="160%" height="160%">
      <feGaussianBlur stdDeviation="14" result="b"/>
      <feColorMatrix in="b" type="matrix"
        values="1 0 0 0 0
                0 1 0 0 0
                0 0 1 0 0
                0 0 0 0.7 0" result="g"/>
      <feMerge>
        <feMergeNode in="g"/>
        <feMergeNode in="SourceGraphic"/>
      </feMerge>
    </filter>
  </defs>

  <rect x="0" y="0" width="512" height="512" rx="120" fill="url(#g1)"/>

  <g filter="url(#glow)">
    <path d="M140 160c0-26 22-48 48-48h136c26 0 48 22 48 48v92c0 26-22 48-48 48H246l-52 52v-52h-6c-26 0-48-22-48-48v-92z"
          fill="rgba(255,255,255,0.12)" stroke="rgba(255,255,255,0.22)" stroke-width="6"/>
    <path d="M188 206h160" stroke="url(#g2)" stroke-width="18" stroke-linecap="round" opacity="0.95"/>
    <path d="M188 262h118" stroke="url(#g2)" stroke-width="18" stroke-linecap="round" opacity="0.75"/>
    <circle cx="368" cy="262" r="18" fill="url(#g2)" opacity="0.9"/>
  </g>

  <text x="50%" y="452" text-anchor="middle" font-family="ui-sans-serif, system-ui, -apple-system, Segoe UI, Roboto"
        font-size="44" fill="rgba(255,255,255,0.78)" letter-spacing="4">CONVO</text>
</svg>
