<svg xmlns="http://www.w3.org/2000/svg" width="192" height="192" viewBox="0 0 192 192">
  <defs>
    <radialGradient id="g1" cx="30%" cy="25%" r="90%">
      <stop offset="0%" stop-color="#7ee7ff" stop-opacity="1"/>
      <stop offset="55%" stop-color="#c681ff" stop-opacity="0.85"/>
      <stop offset="100%" stop-color="#0A0C14" stop-opacity="1"/>
    </radialGradient>
    <linearGradient id="g2" x1="0" y1="0" x2="1" y2="1">
      <stop offset="0%" stop-color="#7ee7ff"/>
      <stop offset="100%" stop-color="#c681ff"/>
    </linearGradient>
    <filter id="glow" x="-30%" y="-30%" width="160%" height="160%">
      <feGaussianBlur stdDeviation="6" result="b"/>
      <feColorMatrix in="b" type="matrix"
        values="1 0 0 0 0
                0 1 0 0 0
                0 0 1 0 0
                0 0 0 0.7 0" result="g"/>
      <feMerge>
        <feMergeNode in="g"/>
        <feMergeNode in="SourceGraphic"/>
      </feMerge>
    </filter>
  </defs>

  <rect x="0" y="0" width="192" height="192" rx="44" fill="url(#g1)"/>

  <g filter="url(#glow)">
    <path d="M52 64c0-10 8-18 18-18h60c10 0 18 8 18 18v34c0 10-8 18-18 18H98l-20 20v-20H70c-10 0-18-8-18-18V64z"
          fill="rgba(255,255,255,0.12)" stroke="rgba(255,255,255,0.22)" stroke-width="2"/>
    <path d="M70 78h52" stroke="url(#g2)" stroke-width="6" stroke-linecap="round" opacity="0.95"/>
    <path d="M70 96h38" stroke="url(#g2)" stroke-width="6" stroke-linecap="round" opacity="0.75"/>
    <circle cx="132" cy="96" r="6" fill="url(#g2)" opacity="0.9"/>
  </g>

  <text x="50%" y="168" text-anchor="middle" font-family="ui-sans-serif, system-ui, -apple-system, Segoe UI, Roboto"
        font-size="18" fill="rgba(255,255,255,0.78)" letter-spacing="1.2">CONVO</text>
</svg>
